<svg width="15" height="19" viewBox="0 0 15 19" fill="none" xmlns="http://www.w3.org/2000/svg">
<g clip-path="url(#clip0_38_18)">
<path d="M12.4311 5.67177H11.7341V4.69263C11.734 2.41931 9.83463 0.570068 7.49997 0.570068C5.1653 0.570068 3.26581 2.41957 3.26581 4.69263V5.67177H2.56885C1.43566 5.67177 0.513672 6.5695 0.513672 7.67287V16.999C0.513672 18.1026 1.43566 19.0001 2.56885 19.0001H12.431C13.5642 19.0001 14.4862 18.1025 14.4862 16.999V7.67287C14.4862 6.5695 13.5642 5.67177 12.4311 5.67177ZM4.60659 4.69263C4.60659 3.13928 5.90446 1.87556 7.49997 1.87556C9.0953 1.87556 10.3932 3.13928 10.3932 4.69263V5.67177H4.60659V4.69263ZM13.1455 16.999C13.1455 17.3828 12.8248 17.6946 12.4311 17.6946H2.56876C2.17482 17.6946 1.85436 17.3825 1.85436 16.999V7.67287C1.85436 7.28929 2.17482 6.97727 2.56876 6.97727H3.26572V7.89267C3.05029 8.07541 2.91134 8.34153 2.91134 8.6418C2.91134 9.19293 3.37013 9.63982 3.93615 9.63982C4.502 9.63982 4.96097 9.19293 4.96097 8.6418C4.96097 8.34179 4.82193 8.07566 4.60659 7.89267V6.97727H10.3932V7.89267C10.1777 8.07541 10.0388 8.34153 10.0388 8.6418C10.0388 9.19293 10.4976 9.63982 11.0636 9.63982C11.6296 9.63982 12.0884 9.19293 12.0884 8.6418C12.0884 8.34179 11.9494 8.07541 11.734 7.89267V6.97727H12.431C12.8249 6.97727 13.1454 7.28929 13.1454 7.67287V16.999H13.1455Z" fill="white"/>
</g>
<defs>
<clipPath id="clip0_38_18">
<rect width="14.9432" height="18.43" fill="white" transform="translate(0.0283203 0.570068)"/>
</clipPath>
</defs>
</svg>
