<svg width="19" height="19" viewBox="0 0 19 19" fill="none" xmlns="http://www.w3.org/2000/svg">
<path d="M10.2065 1.04281L10.2067 1.04294L17.9579 8.79311L17.9579 8.79314L17.9586 8.79387C17.9587 8.794 17.9589 8.79412 17.959 8.79425C18.347 9.18349 18.3468 9.81757 17.9584 10.2065C17.7683 10.3965 17.5197 10.4994 17.2516 10.4994H16.9651H16.2151V11.2494V16.953C16.2151 17.6673 15.6326 18.25 14.9177 18.25H12H9H7.11497H4.08244C3.36747 18.25 2.785 17.6673 2.785 16.953V11.2494V10.4994H2.035H1.73537L1.72466 10.4983L1.70429 10.4974C1.45245 10.4866 1.21967 10.3844 1.04177 10.2064L1.04164 10.2063C0.653509 9.81819 0.652669 9.18488 1.03983 8.79552L1.04315 8.79216L1.04856 8.78666L8.7933 1.04279L8.26382 0.513245L8.79331 1.04278C8.98321 0.852897 9.23173 0.75 9.50005 0.75C9.76824 0.75 10.0167 0.852944 10.2065 1.04281Z" fill="black" stroke="white" stroke-width="1.5"/>
<path d="M17.9579 8.79313L17.9586 8.79387C18.3471 9.18313 18.3469 9.81761 17.9583 10.2066C17.7682 10.3966 17.5196 10.4994 17.2516 10.4994H16.9651H16.2151V11.2494V16.953C16.2151 17.6673 15.6326 18.25 14.9177 18.25H12.0784V13.9717C12.0784 13.0424 11.3236 12.2877 10.3944 12.2877H8.60572C7.67649 12.2877 6.92166 13.0424 6.92166 13.9717V18.25H4.08244C3.36747 18.25 2.785 17.6673 2.785 16.953V11.2494V10.4994H2.035H1.73537L1.72466 10.4983L1.70429 10.4974C1.45245 10.4866 1.21967 10.3844 1.04177 10.2064L1.04164 10.2063C0.653509 9.81819 0.652669 9.18488 1.03983 8.79552L1.0457 8.78957L1.04836 8.78686L8.7933 1.04279L8.26479 0.514213L8.79331 1.04278C8.98321 0.852897 9.23173 0.75 9.50005 0.75C9.76824 0.75 10.0167 0.852945 10.2065 1.04281L10.2067 1.04294L17.9579 8.79313Z" fill="black" stroke="white" stroke-width="1.5"/>
</svg>
