<svg width="19" height="19" viewBox="0 0 19 19" fill="none" xmlns="http://www.w3.org/2000/svg">
<path d="M18.4895 8.26408C18.4891 8.26365 18.4886 8.26321 18.4882 8.26278L10.737 0.512573C10.4066 0.182068 9.9673 0 9.50005 0C9.03281 0 8.59354 0.181923 8.263 0.512428L0.515831 8.25872C0.513221 8.26133 0.510612 8.26408 0.508002 8.26669C-0.170468 8.94901 -0.169308 10.0561 0.511337 10.7366C0.822302 11.0477 1.23301 11.2279 1.67213 11.2467C1.68996 11.2485 1.70794 11.2494 1.72606 11.2494H2.035V16.953C2.035 18.0817 2.95339 19 4.08244 19H7.11497C7.42231 19 7.67166 18.7508 7.67166 18.4434V13.9717C7.67166 13.4566 8.09063 13.0377 8.60572 13.0377H10.3944C10.9095 13.0377 11.3284 13.4566 11.3284 13.9717V18.4434C11.3284 18.7508 11.5777 19 11.8851 19H14.9177C16.0467 19 16.9651 18.0817 16.9651 16.953V11.2494H17.2516C17.7187 11.2494 18.1579 11.0674 18.4886 10.7369C19.17 10.0552 19.1703 8.94626 18.4895 8.26408Z" fill="white"/>
</svg>
