<svg width="17" height="28" viewBox="0 0 17 28" fill="none" xmlns="http://www.w3.org/2000/svg">
<path d="M9.04344 12.3441C5.6212 11.456 4.52066 10.5452 4.52066 9.1151C4.52066 7.47424 6.03579 6.32263 8.59116 6.32263C11.2747 6.32263 12.2697 7.6022 12.3601 9.48392H15.6919C15.5939 6.88714 14.0034 4.5237 10.8526 3.74843V0.45166H6.32977V3.70327C3.40504 4.34306 1.0532 6.22478 1.0532 9.13768C1.0532 12.6151 3.94024 14.3463 8.13889 15.3549C11.9154 16.2581 12.6617 17.5753 12.6617 18.9904C12.6617 20.0216 11.9305 21.6775 8.59116 21.6775C5.48552 21.6775 4.25683 20.285 4.09854 18.5162H0.774292C0.962741 21.813 3.42766 23.657 6.32977 24.2818V27.5484H10.8526V24.3119C13.7848 23.7474 16.1291 22.0538 16.1291 18.9603C16.1291 14.7 12.4657 13.2398 9.04344 12.3441Z" fill="white"/>
</svg>
