<svg width="22" height="21" viewBox="0 0 22 21" fill="none" xmlns="http://www.w3.org/2000/svg">
<path d="M10.75 19.25C11.7169 19.25 12.5 18.4669 12.5 17.5H9C9 18.4669 9.78312 19.25 10.75 19.25ZM16 14V9.625C16 6.93438 14.5694 4.69 12.0625 4.095V3.5C12.0625 2.77375 11.4762 2.1875 10.75 2.1875C10.0237 2.1875 9.4375 2.77375 9.4375 3.5V4.095C6.93062 4.69 5.5 6.93438 5.5 9.625V14L3.75 15.75V16.625H17.75V15.75L16 14ZM14.25 14.875H7.25V9.625C7.25 7.45063 8.57562 5.6875 10.75 5.6875C12.9244 5.6875 14.25 7.45063 14.25 9.625V14.875Z" fill="white"/>
</svg>
