<svg width="15" height="18" viewBox="0 0 15 18" fill="none" xmlns="http://www.w3.org/2000/svg">
<path d="M4.26001 12.697C4.76245 12.697 5.25257 12.794 5.75362 12.794C6.64421 12.794 7.5348 12.794 8.42539 12.794C8.76779 12.794 9.11019 12.794 9.45259 12.794C9.86798 12.794 10.2698 12.697 10.682 12.697C10.7935 12.697 10.9528 12.7471 10.957 12.5999C10.9631 12.3846 10.9814 12.1467 10.8276 11.9744C10.5931 11.7118 10.0956 11.7749 9.7842 11.7749C9.05896 11.7749 8.33373 11.7749 7.60849 11.7749C6.96573 11.7749 6.14538 11.9007 5.53254 11.6779C5.30413 11.5948 5.19288 11.4535 5.04725 11.2411C4.68449 10.7121 5.74717 10.7586 5.98008 10.7558C6.54247 10.749 7.10537 10.7558 7.66781 10.7558C8.04506 10.7558 8.42296 10.7625 8.80014 10.7558C8.92577 10.7536 8.99289 10.6732 9.11288 10.6561C9.26046 10.635 10.4098 10.1281 10.1697 9.85803C9.9762 9.64031 9.34675 9.61043 9.09671 9.56955C8.37074 9.45088 7.62466 9.49406 6.89135 9.49406C6.47076 9.49406 6.05018 9.49406 5.6296 9.49406C5.50896 9.49406 5.34779 9.53077 5.25755 9.44554C5.1126 9.30864 5.01561 9.06772 5.12274 8.86319C5.35077 8.42786 6.63909 8.62055 7.04232 8.62055C7.62513 8.62055 8.19436 8.7176 8.77588 8.7176C9.17047 8.7176 9.71172 8.73755 10.0592 8.55045C10.1178 8.51887 10.3173 8.55385 10.3261 8.47496C10.3534 8.22885 10.2646 8.05749 10.0808 7.89531C9.67629 7.53843 9.11476 7.5555 8.60603 7.55291C7.92913 7.54948 7.27029 7.61524 6.59748 7.64728C6.23073 7.66474 6.02898 7.64106 5.73744 7.41811C5.60384 7.31595 5.3497 6.90426 5.59185 6.77645C5.87659 6.62618 6.26253 6.6794 6.57052 6.6794C6.98965 6.6794 7.41767 6.69645 7.83496 6.73871C8.39468 6.79539 9.09082 6.86861 9.6467 6.76567C10.1884 6.66536 9.99069 5.90564 9.66018 5.69265C8.77629 5.12303 7.56999 5.52072 6.62444 5.63603C6.49657 5.65162 5.81818 5.7636 5.7671 5.5848C5.64634 5.16217 6.23667 4.90847 6.54625 4.85687C6.93059 4.79282 7.34259 4.73345 7.72712 4.82452C7.86328 4.85677 8.03677 4.85032 8.16388 4.9081C8.25116 4.94777 8.33541 5.02452 8.43348 5.02942C8.66929 5.04121 8.66344 5.18441 8.71387 5.41765C8.77224 5.68759 8.77318 6.07308 8.77318 6.3397" stroke="white" stroke-width="3" stroke-linecap="round"/>
<path d="M7.75 17.25C8.71687 17.25 9.5 16.4669 9.5 15.5H6C6 16.4669 6.78312 17.25 7.75 17.25ZM13 12V7.625C13 4.93438 11.5694 2.69 9.0625 2.095V1.5C9.0625 0.77375 8.47625 0.1875 7.75 0.1875C7.02375 0.1875 6.4375 0.77375 6.4375 1.5V2.095C3.93062 2.69 2.5 4.93438 2.5 7.625V12L0.75 13.75V14.625H14.75V13.75L13 12ZM11.25 12.875H4.25V7.625C4.25 5.45063 5.57562 3.6875 7.75 3.6875C9.92437 3.6875 11.25 5.45063 11.25 7.625V12.875Z" fill="white"/>
</svg>
