<svg width="15" height="19" viewBox="0 0 15 19" fill="none" xmlns="http://www.w3.org/2000/svg">
<g clip-path="url(#clip0_529_265)">
<path d="M12.4311 5.67177H11.7341V4.69263C11.734 2.41931 9.83463 0.570068 7.49997 0.570068C5.1653 0.570068 3.26581 2.41957 3.26581 4.69263V5.67177H2.56885C1.43566 5.67177 0.513672 6.5695 0.513672 7.67287V16.999C0.513672 18.1026 1.43566 19.0001 2.56885 19.0001H12.431C13.5642 19.0001 14.4862 18.1025 14.4862 16.999V7.67287C14.4862 6.5695 13.5642 5.67177 12.4311 5.67177ZM4.60659 4.69263C4.60659 3.13928 5.90446 1.87556 7.49997 1.87556C9.0953 1.87556 10.3932 3.13928 10.3932 4.69263V5.67177H4.60659V4.69263ZM13.1455 16.999C13.1455 17.3828 12.8248 17.6946 12.4311 17.6946H2.56876C2.17482 17.6946 1.85436 17.3825 1.85436 16.999V7.67287C1.85436 7.28929 2.17482 6.97727 2.56876 6.97727H3.26572V7.89267C3.05029 8.07541 2.91134 8.34153 2.91134 8.6418C2.91134 9.19293 3.37013 9.63982 3.93615 9.63982C4.502 9.63982 4.96097 9.19293 4.96097 8.6418C4.96097 8.34179 4.82193 8.07566 4.60659 7.89267V6.97727H10.3932V7.89267C10.1777 8.07541 10.0388 8.34153 10.0388 8.6418C10.0388 9.19293 10.4976 9.63982 11.0636 9.63982C11.6296 9.63982 12.0884 9.19293 12.0884 8.6418C12.0884 8.34179 11.9494 8.07541 11.734 7.89267V6.97727H12.431C12.8249 6.97727 13.1454 7.28929 13.1454 7.67287V16.999H13.1455Z" fill="white"/>
<path d="M12.3955 7.3103C12.6333 7.90503 12.2268 8.75827 12.0557 9.31885C11.9651 9.61607 11.8307 9.8934 11.7538 10.1951C11.6624 10.5538 11.6234 10.9196 11.5327 11.2789C11.2826 12.2699 11.0576 13.254 10.9854 14.2769C10.9792 14.365 10.8022 15.3631 10.8533 15.3823C11.0573 15.4587 11.5766 14.8811 11.7295 14.7676C12.2976 14.3461 12.6492 13.2355 12.3847 12.5622C12.3592 12.4973 12.2145 12.2218 12.204 12.4058C12.176 12.8969 12.0925 13.3736 12.0315 13.8617C11.9457 14.5477 11.9587 15.2344 11.9587 15.9242C11.9587 16.1346 11.8348 16.834 12.0557 16.9567C12.3064 17.096 12.727 15.6166 12.7513 15.4631C12.949 14.2139 12.6381 12.968 12.6381 11.7291C12.6381 11.4571 12.6212 11.436 12.444 11.2681C12.2597 11.0935 12.2667 10.9251 12.1636 10.7073C12.0926 10.5574 12.0828 10.3712 11.9857 10.2463C11.8948 10.1295 11.8425 9.91074 11.8104 9.7664C11.7097 9.31343 11.2799 8.88562 10.9908 8.55318C10.7995 8.33317 10.5582 7.95312 10.3087 7.80637C10.1206 7.69574 9.82896 7.74706 9.60505 7.74706C8.88065 7.74706 8.1576 7.78941 7.43473 7.79559C6.73322 7.80159 5.98404 7.71899 5.28869 7.82255C4.93104 7.87582 4.62653 7.98971 4.26419 7.98971C4.00537 7.98971 3.74655 7.98971 3.48773 7.98971C3.36792 7.98971 3.12315 7.94293 3.01862 8.01127C2.43967 8.38982 2.72322 9.35897 2.78676 9.93086C2.84027 10.4124 2.84225 10.7719 2.71127 11.2303C2.58245 11.6812 2.43587 12.1328 2.36078 12.5999C2.3132 12.896 2.35 13.2219 2.35 13.522C2.35 13.8566 2.47757 14.117 2.54412 14.4386C2.63562 14.8809 2.63562 15.3425 2.73823 15.7786C2.77409 15.931 2.79708 16.196 2.91078 16.3097C3.07012 16.469 3.63999 16.4337 3.83282 16.4337C4.27649 16.4337 4.72105 16.4256 5.16467 16.4337C5.90455 16.4472 6.74934 16.511 7.46978 16.7006C7.59736 16.7342 7.7245 16.7225 7.85532 16.7249C8.09185 16.7292 8.31591 16.8068 8.5509 16.8219C8.75612 16.8352 8.94114 16.919 9.15481 16.919C9.49767 16.919 9.93736 17.1597 10.2818 16.9406C10.4151 16.8557 10.4503 16.6749 10.4543 16.5308C10.4646 16.1586 10.4999 15.7868 10.5028 15.4146C10.5107 14.4292 10.3223 13.4508 10.2332 12.4705C10.1774 11.8566 10.2602 11.2279 10.2602 10.6103C10.2602 10.2618 10.0225 10.0593 9.7749 9.83919C9.44041 9.54187 8.99496 9.56088 8.58594 9.68821C7.55097 10.0104 6.72095 10.8368 6.01122 11.6186C5.33346 12.3651 4.5677 13.2679 4.33968 14.2769C4.23604 14.7355 4.21053 15.0513 4.55536 15.4038C4.75269 15.6055 5.07147 15.8934 5.35069 15.9619C7.006 16.3679 7.22716 14.2404 6.94945 13.1068C6.75506 12.3133 6.23383 11.1843 5.31025 11.0578C4.89622 11.0011 4.18351 11.0398 4.00267 11.4919C3.89987 11.7489 3.99998 10.9383 3.99998 10.6615C3.99998 10.5418 3.92346 9.99152 4.07547 9.93625C4.58927 9.74941 5.11719 10.3073 5.42888 10.6103C5.82546 10.9957 6.21854 11.3163 6.51269 11.7965C6.87517 12.3883 7.1555 13.0391 7.43473 13.673C7.55888 13.9548 7.67604 14.2355 7.78792 14.5222C7.86063 14.7086 8.04926 14.9252 8.0737 15.1207C8.08728 15.2294 8.06876 15.2993 8.07909 15.1288C8.11181 14.5889 8.12492 14.0552 8.12492 13.5139C8.12492 12.9386 8.09641 12.3944 7.99012 11.8289C7.94999 11.6154 7.93081 11.409 7.93081 11.1926C7.93081 10.416 7.97933 12.7454 7.97933 13.522C7.97933 13.9855 8.02786 14.4361 8.02786 14.8997C8.02786 15.0782 8.12185 15.3162 8.0737 15.4847C8.0351 15.6198 7.37262 15.293 7.34846 15.2205C7.24046 14.8965 7.88546 14.9747 8.02786 14.8323" stroke="white" stroke-width="3" stroke-linecap="round"/>
</g>
<defs>
<clipPath id="clip0_529_265">
<rect width="14.9432" height="18.43" fill="white" transform="translate(0.0283203 0.570068)"/>
</clipPath>
</defs>
</svg>
