<svg width="20" height="19" viewBox="0 0 20 19" fill="none" xmlns="http://www.w3.org/2000/svg">
<g clip-path="url(#clip0_529_244)">
<path d="M15 11.5781C15.3279 11.5781 15.5938 11.3123 15.5938 10.9844C15.5938 10.6565 15.3279 10.3906 15 10.3906C14.6721 10.3906 14.4062 10.6565 14.4062 10.9844C14.4062 11.3123 14.6721 11.5781 15 11.5781Z" fill="white"/>
<path d="M2.82812 4.45312C2.00845 4.45312 1.34375 3.78842 1.34375 2.96875C1.34375 2.14908 2.00845 1.48438 2.82812 1.48438H14.7031V2.67188" stroke="white" stroke-width="2" stroke-miterlimit="10" stroke-linecap="square"/>
<path d="M17.9688 9.20312V4.45312H2.82812C2.00845 4.45312 1.34375 3.78842 1.34375 2.96875V15.1406C1.34375 16.4522 2.40716 17.5156 3.71875 17.5156H17.9688V12.7656" stroke="white" stroke-width="2" stroke-miterlimit="10" stroke-linecap="square"/>
<path d="M19.1562 12.7656H15C14.0162 12.7656 13.2188 11.9682 13.2188 10.9844C13.2188 10.0005 14.0162 9.20312 15 9.20312H19.1562V12.7656Z" stroke="white" stroke-width="2" stroke-miterlimit="10" stroke-linecap="square"/>
<path d="M4.51678 6.58252C4.873 7.69078 4.6944 8.93026 4.65967 10.0766C4.63941 10.7452 4.5653 11.4068 4.5653 12.0771C4.5653 12.1514 4.60862 12.4178 4.53834 12.468C4.46847 12.5179 4.09892 11.165 4.08002 11.0957" stroke="white" stroke-width="3" stroke-linecap="round"/>
<path d="M2.81827 6C2.74955 6.08589 2.76974 6.20358 2.76974 6.30735C2.76974 6.58594 2.76974 6.86453 2.76974 7.14312C2.76974 7.5606 2.8668 7.96966 2.8668 8.38869C2.8668 9.03883 2.95252 9.75684 2.81827 10.3945C2.76391 10.6527 2.75976 10.9192 2.69964 11.1764C2.65311 11.3755 2.57562 11.5195 2.57562 11.7264C2.57562 12.5089 2.60081 13.2473 2.73199 14.018C2.78064 14.3038 2.8035 14.587 2.92611 14.8322C3.09007 15.1602 3.56893 15.1234 3.85894 15.1234C4.86366 15.1234 5.86839 15.1234 6.87311 15.1234C7.23459 15.1234 7.60548 15.0892 7.95692 15.1827C8.60102 15.354 9.28134 15.3143 9.94121 15.366C10.4187 15.4035 10.8916 15.4146 11.3701 15.4146C12.2364 15.4146 13.09 15.5036 13.9529 15.5116C14.4593 15.5163 14.952 15.5556 15.4465 15.6464C15.7443 15.7011 16.0552 15.7543 16.3578 15.7543C16.5413 15.7543 16.737 15.767 16.746 15.5224C16.7573 15.2181 16.742 15.0214 16.5573 14.7675C16.4189 14.5772 16.1359 14.6381 15.9345 14.6381C15.3791 14.6381 14.8237 14.6381 14.2684 14.6381C13.0464 14.6381 11.8799 14.386 10.6799 14.2014C10.3288 14.1473 9.88669 13.888 9.63656 13.6379C9.25096 13.2523 9.19759 12.7792 9.07578 12.2818C8.96312 11.8217 8.98142 11.3753 8.98142 10.9041C8.98142 10.2762 8.99568 9.58703 9.27259 9.00878C9.55929 8.41009 9.97288 7.91153 10.5451 7.5637C11.2278 7.14876 12.1082 7.11616 12.8853 7.11616C13.2712 7.11616 13.6738 7.16736 14.05 7.25096C14.3284 7.31284 14.6671 7.26175 14.9505 7.26175C15.3696 7.26175 15.7134 7.19219 16.1044 7.05685C16.2753 6.99766 16.3578 6.90554 16.3578 6.72793C16.3578 6.4782 15.3858 6.44718 15.212 6.43945C14.0898 6.38958 12.9621 6.46758 11.8392 6.43406C11.4365 6.42204 11.0112 6.41784 10.6125 6.36397C10.26 6.31633 9.9113 6.20907 9.55567 6.19681C8.44552 6.15853 7.32877 6.19411 6.21797 6.19411C5.77432 6.19411 5.54085 6.32559 5.22314 6.62818C4.85889 6.97508 4.96706 7.91343 5.00745 8.37791C5.06009 8.98327 5.12628 9.6194 5.22044 10.222C5.29079 10.6722 5.32151 11.1271 5.33907 11.5835C5.35714 12.0534 5.29052 12.6831 5.46578 13.1337C5.54841 13.3462 5.78853 13.4487 5.98611 13.5247C6.47818 13.7139 6.93272 13.7391 7.45007 13.7916C8.21993 13.8697 8.98036 13.9587 9.75518 13.9587C10.0473 13.9587 10.3393 13.9587 10.6314 13.9587C10.9705 13.9587 11.1285 13.9081 11.1625 13.5678C11.2121 13.0724 10.9781 12.4447 11.1436 11.9717C11.2736 11.6004 11.466 11.2029 11.5022 10.8043C11.5231 10.5747 11.6193 10.3728 11.6505 10.1465C11.6752 9.96778 11.6811 9.7827 11.7745 9.62887C11.9292 9.37415 11.915 9.37862 12.1843 9.25143C12.2497 9.22055 12.3134 9.18596 12.3784 9.15437C12.4184 9.13497 12.5338 9.13723 12.5024 9.10584C12.3796 8.98296 12.0728 9.44126 12.0279 9.49407C11.7913 9.77267 11.743 9.97375 11.6397 10.3083C11.5442 10.6176 11.362 10.9432 11.3216 11.2627C11.2693 11.6765 11.1097 12.2216 11.2245 12.6377C11.2713 12.8072 11.4462 13.101 11.6128 13.1715C11.7187 13.2163 11.7774 13.2942 11.8824 13.3386C12.0172 13.3957 11.9636 13.4305 11.9147 13.2955C11.8024 12.9851 11.7955 12.5765 11.7476 12.2494C11.6996 11.9221 11.699 11.5977 11.699 11.2681C11.699 10.9906 11.6525 10.6911 11.7961 10.4431C11.9634 10.1541 11.9939 9.8415 12.0657 9.52373C12.1138 9.31056 12.2137 8.82843 12.3515 8.69065C12.4982 8.54392 12.1592 8.59476 12.1223 8.60168C11.6535 8.68958 11.1836 8.77124 10.715 8.8605C10.0642 8.98446 9.44498 8.57988 8.90593 8.26198C8.63496 8.10218 8.43844 7.94115 8.12947 7.94115C8.01082 7.94115 7.85177 7.91255 7.73854 7.95193C7.46679 8.04646 7.22644 8.42564 7.06453 8.64751C6.69982 9.14731 6.74909 9.73796 6.74909 10.3245C6.74909 10.7666 6.74909 11.2088 6.74909 11.6509C6.74909 11.8411 6.85869 12.5796 6.65204 12.6484" stroke="white" stroke-width="3" stroke-linecap="round"/>
</g>
<defs>
<clipPath id="clip0_529_244">
<rect width="19" height="19" fill="white" transform="translate(0.75)"/>
</clipPath>
</defs>
</svg>
