<svg width="20" height="19" viewBox="0 0 20 19" fill="none" xmlns="http://www.w3.org/2000/svg">
<g clip-path="url(#clip0_38_10)">
<path d="M14.5 11.5781C14.8279 11.5781 15.0938 11.3123 15.0938 10.9844C15.0938 10.6565 14.8279 10.3906 14.5 10.3906C14.1721 10.3906 13.9062 10.6565 13.9062 10.9844C13.9062 11.3123 14.1721 11.5781 14.5 11.5781Z" fill="white"/>
<path d="M2.32812 4.45312C1.50845 4.45312 0.84375 3.78842 0.84375 2.96875C0.84375 2.14908 1.50845 1.48438 2.32812 1.48438H14.2031V2.67188" stroke="white" stroke-width="2" stroke-miterlimit="10" stroke-linecap="square"/>
<path d="M17.4688 9.20312V4.45312H2.32812C1.50845 4.45312 0.84375 3.78842 0.84375 2.96875V15.1406C0.84375 16.4522 1.90716 17.5156 3.21875 17.5156H17.4688V12.7656" stroke="white" stroke-width="2" stroke-miterlimit="10" stroke-linecap="square"/>
<path d="M18.6562 12.7656H14.5C13.5162 12.7656 12.7188 11.9682 12.7188 10.9844C12.7188 10.0005 13.5162 9.20312 14.5 9.20312H18.6562V12.7656Z" stroke="white" stroke-width="2" stroke-miterlimit="10" stroke-linecap="square"/>
</g>
<defs>
<clipPath id="clip0_38_10">
<rect width="19" height="19" fill="white" transform="translate(0.25)"/>
</clipPath>
</defs>
</svg>
